<svg class = "logo-edu" xmlns="http://www.w3.org/2000/svg" viewBox="0 0 218.5 220.6">
  <path d="M.5 220.6V.6h218v220H.5zM144.7 177c16.3.9 30.9-2.6 41.8-16 5.7-7 10.3-14.6 11.3-23.6 1-9.4 1.9-18.9 2.1-28.4.4-15.8 0-31.6.3-47.3.2-9 .5-8.9 9.3-10.8.5-.1 1.1 0 1.4-.3 1.1-1 2.1-2.2 3.7-3.9h-49.1c-.5 2.2.2 3.4 2.6 3.7 4.1.5 8.1 1.3 12.2 1.4 3.6.1 4.7 1.4 4.8 5 0 18.6.6 37.1.3 55.7-.1 10.1-.9 20.3-2.3 30.4-1.8 13.4-12 25.6-25.2 27.2-4.5.6-9.2.4-13.8.6-16.3-3.2-23.5-14.8-27.2-29.6-4.1-29.4-1.2-58.9-1.7-88.6 5.8-.8 10.8-1.5 15.8-2.1 2.5-.3 3.5-1.3 3-3.4H94.2v29.2c-3.4-10-6.8-20-10.1-29.7H47.5c-1 2.5 0 3.7 2.5 4 3.6.5 7.1 1 11 1.6-.5 2.2-.8 4.1-1.5 6-5.5 15.6-11 31.1-16.7 46.6-7.5 20.3-15.2 40.5-22.8 60.7-1.5 3.9-3.4 6.9-8.3 6.8-2.4 0-4.9.8-7.3 1-2.4.2-3.1 1.4-2.6 3.8h46.7c-.7-3.4-.7-3.4-3.3-3.8-4-.6-8-1.3-12.2-2 .2-1.9.2-3.4.5-4.8 3.6-15 7.4-29.9 10.8-44.9.7-3 2.5-3.1 4.6-3.3 11.3-.7 22.6-1.2 33.9-2 2.5-.2 3.5.9 4.2 3 2.9 8.5 5.9 17 8.8 25.5 2.9 8.6 5.6 17.3 8.5 26.3-5.5.7-10.3 1.5-15.2 2-2.6.2-3.5 1.2-2.6 3.8 19.4.2 38.8.2 58.2.2z" fill="#fefefd"/>
  <path d="M116.8 141c3.7 14.8 10.9 26.4 27.2 29.6.2 2.1.4 4.3.6 6.4H86.5c-.9-2.6 0-3.6 2.6-3.8 4.9-.5 9.7-1.2 15.2-2-2.9-9-5.6-17.7-8.5-26.3-2.8-8.5-5.9-17-8.8-25.5-.7-2.1-1.8-3.2-4.2-3-11.3.7-22.6 1.3-33.9 2-2.1.1-3.9.3-4.6 3.3-3.4 15-7.2 29.9-10.8 44.9-.3 1.4-.3 2.9-.5 4.8 4.2.7 8.2 1.3 12.2 2 2.5.4 2.5.4 3.3 3.8H1.8c-.5-2.4.2-3.6 2.6-3.8 2.4-.2 4.9-1 7.3-1 4.8.1 6.8-2.9 8.3-6.8 7.5-20.2 15.2-40.4 22.7-60.6 5.7-15.5 11.2-31.1 16.7-46.6.6-1.8.9-3.8 1.5-6-3.9-.6-7.5-1.2-11-1.6-2.5-.3-3.4-1.5-2.5-4H84c3.3 9.7 6.7 19.7 10.1 29.7.1.8 0 1.6.3 2.4 4.9 14.7 9.8 29.4 14.9 43.9 2.2 6 5 12.1 7.5 18.2zM67 57.3h-1c-6 17.5-12.1 35-18.4 53.3h36.8C78.6 92.8 72.8 75 67 57.3z" fill="#0f2444"/>
  <path d="M144.7 177c-.2-2.1-.4-4.3-.6-6.4 4.6-.2 9.2 0 13.8-.6 13.2-1.6 23.4-13.8 25.2-27.2 1.4-10.1 2.2-20.3 2.3-30.4.2-18.6-.3-37.1-.3-55.7 0-3.6-1.2-4.9-4.8-5-4.1-.1-8.1-1-12.2-1.4-2.3-.3-3.1-1.5-2.6-3.7h49.1c-1.6 1.8-2.6 2.9-3.7 3.9-.3.3-.9.2-1.4.3-8.7 1.9-9.1 1.9-9.3 10.8-.3 15.8.1 31.6-.3 47.3-.2 9.5-1.1 19-2.1 28.4-1 9.1-5.5 16.6-11.3 23.6-11 13.5-25.5 17-41.8 16.1z" fill="#fcd10b"/>
  <path d="M116.8 141c-2.5-6.2-5.3-12.2-7.5-18.5-5.1-14.6-10-29.3-14.9-43.9-.2-.7-.2-1.6-.3-2.4V47h39.8c.5 2.1-.5 3.1-3 3.4-5 .6-10 1.3-15.8 2.1.5 29.7-2.4 59.1 1.7 88.5z" fill="#fbd009"/>
  <path d="M67 57.3c5.8 17.8 11.6 35.5 17.4 53.3H47.6C53.9 92.3 59.9 74.8 66 57.3h1z" fill="#f9fafa"/>
</svg>
