<?xml version="1.0" encoding="utf-8"?>
<!-- Generator: Adobe Illustrator 21.0.2, SVG Export Plug-In . SVG Version: 6.00 Build 0)  -->
<svg version="1.1" id="Layer_1" xmlns="http://www.w3.org/2000/svg" xmlns:xlink="http://www.w3.org/1999/xlink" x="0px" y="0px"
	 viewBox="0 0 140 35.9" style="enable-background:new 0 0 140 35.9;" xml:space="preserve">
<style type="text/css">
	.st0{fill:#07AA9E;}
</style>
<g>
	<g>
		<g>
			<g>
				<rect y="31.1" class="st0" width="137" height="3"/>
			</g>
		</g>
		<g>
			<g>
				<circle class="st0" cx="15.4" cy="32.7" r="3.3"/>
			</g>
		</g>
		<g>
			<g>
				<circle class="st0" cx="26.5" cy="32.7" r="3.3"/>
			</g>
		</g>
		<g>
			<g>
				<circle class="st0" cx="48.5" cy="32.7" r="3.3"/>
			</g>
		</g>
		<g>
			<g>
				<circle class="st0" cx="70.6" cy="32.7" r="3.3"/>
			</g>
		</g>
		<g>
			<g>
				<circle class="st0" cx="114.7" cy="32.7" r="3.3"/>
			</g>
		</g>
		<g>
			<g>
				<circle class="st0" cx="136.7" cy="32.7" r="3.3"/>
			</g>
		</g>
	</g>
	<g>
		<g>
			<path class="st0" d="M25.3,14.8h-5.6v9.1h-2.6V0.7h8.7c4.2,0,7.4,2.2,7.4,6.9C33.2,12.2,30,14.8,25.3,14.8z M25.7,3h-6v9.4h5.7
				c3.5,0,5.2-1.6,5.2-4.7C30.6,4.7,28.9,3,25.7,3z"/>
			<path class="st0" d="M53.5,13.8l5.1,10.1h-3l-5-9.9h-5.5v9.9h-2.6V0.7h9.2c4.1,0,7.2,2.1,7.2,6.6C59,10.9,56.8,13.1,53.5,13.8z
				 M51.6,3h-6.5v8.7h6.2c3.4,0,5.1-1.4,5.1-4.3C56.4,4.5,54.7,3,51.6,3z"/>
			<path class="st0" d="M69.2,23.9V0.7h2.6v23.2L69.2,23.9L69.2,23.9z"/>
			<path class="st0" d="M100.6,23.9V8.2V5.7c-0.2,0.9-0.9,2.6-1.4,3.8L93,24.5L86.9,9.5c-0.5-1.2-1.1-2.9-1.4-3.8v2.5v15.7H83V0.7
				h2.9l5.5,13.9c0.6,1.4,1.4,3.5,1.7,4.5c0.3-1,1.1-3.1,1.7-4.5l5.5-13.9h2.8v23.2L100.6,23.9L100.6,23.9z"/>
			<path class="st0" d="M114.1,23.9V0.7h14V3h-11.4v7.3h6.6v2.4h-6.6v8.9h11.9v2.4L114.1,23.9L114.1,23.9z"/>
		</g>
		<g>
			<circle class="st0" cx="70.6" cy="3.2" r="3.2"/>
		</g>
	</g>
</g>
</svg>
